<svg width="120" height="16" viewBox="0 0 120 16" fill="none" xmlns="http://www.w3.org/2000/svg">
<path d="M1.19585 2.45326C0.945516 2.33669 0.837085 2.03926 0.953658 1.78893C1.07023 1.5386 1.36767 1.43016 1.618 1.54674L1.19585 2.45326ZM119.45 2L116.085 6.69098L113.705 1.4307L119.45 2ZM1.618 1.54674C2.53415 1.97337 3.45583 2.39034 4.38289 2.79753L3.98076 3.71311C3.04698 3.30298 2.11863 2.88298 1.19585 2.45326L1.618 1.54674ZM9.99239 5.11566C11.8744 5.84544 13.7767 6.53558 15.698 7.18504L15.3778 8.13238C13.4425 7.47822 11.5265 6.78308 9.63086 6.04802L9.99239 5.11566ZM21.489 9.00182C23.4268 9.56333 25.3822 10.084 27.3543 10.5628L27.1184 11.5346C25.132 11.0523 23.1624 10.5279 21.2107 9.96231L21.489 9.00182ZM33.2826 11.8654C35.2609 12.2549 37.2544 12.6027 39.2622 12.9078L39.112 13.8964C37.0898 13.5892 35.0819 13.2389 33.0894 12.8466L33.2826 11.8654ZM45.2811 13.6888C47.2843 13.9047 49.3004 14.0782 51.3285 14.2086L51.2643 15.2065C49.2219 15.0753 47.1915 14.9005 45.174 14.6831L45.2811 13.6888ZM57.3928 14.4677C58.4021 14.4892 59.4141 14.5 60.4287 14.5V15.5C59.407 15.5 58.3879 15.4891 57.3715 15.4675L57.3928 14.4677ZM60.4287 14.5C61.4432 14.5 62.4552 14.4892 63.4645 14.4677L63.4858 15.4675C62.4694 15.4891 61.4503 15.5 60.4287 15.5V14.5ZM69.5289 14.2086C71.5569 14.0782 73.573 13.9047 75.5762 13.6888L75.6833 14.6831C73.6659 14.9005 71.6354 15.0753 69.593 15.2065L69.5289 14.2086ZM81.5951 12.9078C83.6029 12.6027 85.5965 12.2549 87.5747 11.8654L87.7679 12.8466C85.7754 13.2389 83.7676 13.5892 81.7453 13.8964L81.5951 12.9078ZM93.503 10.5628C95.4751 10.084 97.4306 9.56333 99.3683 9.00182L99.6466 9.96231C97.6949 10.5279 95.7253 11.0523 93.7389 11.5346L93.503 10.5628ZM105.159 7.18504C107.081 6.53558 108.983 5.84544 110.865 5.11566L111.226 6.04802C109.331 6.78308 107.415 7.47822 105.48 8.13238L105.159 7.18504ZM0.984772 2.90653C0.484112 2.67338 0.267248 2.07851 0.500395 1.57785C0.733541 1.07719 1.32841 0.860327 1.82907 1.09347L0.984772 2.90653ZM119.45 2L112.719 11.382L107.96 0.8614L119.45 2ZM1.82907 1.09347C2.74191 1.51856 3.66025 1.93403 4.58396 2.33974L3.77969 4.1709C2.84256 3.75929 1.91087 3.33779 0.984772 2.90653L1.82907 1.09347ZM10.1731 4.64948C12.0484 5.37662 13.9437 6.06426 15.8581 6.71137L15.2177 8.60605C13.2755 7.94954 11.3526 7.25191 9.45009 6.5142L10.1731 4.64948ZM21.6282 8.52158C23.5589 9.08105 25.5073 9.59984 27.4723 10.0769L27.0004 12.0205C25.0069 11.5365 23.0303 11.0102 21.0715 10.4426L21.6282 8.52158ZM33.3792 11.3748C35.3503 11.7629 37.3367 12.1095 39.3373 12.4134L39.0369 14.3907C37.0075 14.0824 34.9925 13.7309 32.9928 13.3371L33.3792 11.3748ZM45.3347 13.1917C47.3307 13.4068 49.3397 13.5797 51.3605 13.7096L51.2323 15.7055C49.1827 15.5738 47.145 15.3984 45.1204 15.1802L45.3347 13.1917ZM57.4035 13.9678C58.4092 13.9892 59.4177 14 60.4287 14V16C59.4035 16 58.3808 15.9891 57.3609 15.9674L57.4035 13.9678ZM60.4287 14C61.4397 14 62.4481 13.9892 63.4539 13.9678L63.4965 15.9674C62.4765 15.9891 61.4539 16 60.4287 16V14ZM69.4968 13.7096C71.5177 13.5797 73.5266 13.4068 75.5226 13.1917L75.7369 15.1802C73.7123 15.3984 71.6747 15.5738 69.625 15.7055L69.4968 13.7096ZM81.52 12.4134C83.5206 12.1095 85.507 11.7629 87.4781 11.3748L87.8645 13.3371C85.8649 13.7309 83.8499 14.0824 81.8205 14.3907L81.52 12.4134ZM93.385 10.0769C95.35 9.59984 97.2984 9.08105 99.2292 8.52158L99.7858 10.4426C97.827 11.0102 95.8504 11.5365 93.8569 12.0205L93.385 10.0769ZM104.999 6.71137C106.914 6.06426 108.809 5.37662 110.684 4.64948L111.407 6.5142C109.505 7.25191 107.582 7.94954 105.64 8.60605L104.999 6.71137Z" fill="#B7DCFF"/>
</svg>
