<svg width="120" height="25" viewBox="0 0 120 25" fill="none" xmlns="http://www.w3.org/2000/svg">
<path d="M0.948512 23.6141C0.735387 23.7897 0.704961 24.1048 0.880552 24.3179C1.05614 24.5311 1.37126 24.5615 1.58439 24.3859L0.948512 23.6141ZM119.31 24L117.217 18.6192L113.604 23.122L119.31 24ZM1.58439 24.3859C2.41731 23.6997 3.25474 23.0276 4.09657 22.3699L3.48092 21.5819C2.63219 22.245 1.78802 22.9224 0.948512 23.6141L1.58439 24.3859ZM9.27369 18.5456C11.0505 17.3075 12.8452 16.1322 14.657 15.0214L14.1343 14.1689C12.3055 15.2902 10.4944 16.4761 8.70198 17.7251L9.27369 18.5456ZM20.2417 11.8308C22.1505 10.8191 24.0766 9.87791 26.0188 9.00896L25.6104 8.09615C23.6474 8.97439 21.7014 9.92536 19.7734 10.9473L20.2417 11.8308ZM31.975 6.5906C33.9971 5.85231 36.0353 5.19158 38.0884 4.6102L37.816 3.64803C35.7387 4.23626 33.677 4.90464 31.632 5.65125L31.975 6.5906ZM44.3322 3.09782C46.4322 2.67445 48.5465 2.33365 50.674 2.07728L50.5544 1.08447C48.4005 1.34401 46.2602 1.68902 44.1346 2.11755L44.3322 3.09782ZM57.0761 1.56417C58.1438 1.52147 59.2146 1.5 60.2882 1.5V0.5C59.2012 0.5 58.1172 0.521734 57.0361 0.564969L57.0761 1.56417ZM60.2882 1.5C61.3618 1.5 62.4326 1.52147 63.5003 1.56417L63.5403 0.564969C62.4592 0.521734 61.3752 0.5 60.2882 0.5V1.5ZM69.9024 2.07728C72.0298 2.33365 74.1441 2.67445 76.2442 3.09782L76.4418 2.11755C74.3162 1.68902 72.1759 1.34401 70.022 1.08447L69.9024 2.07728ZM82.4879 4.6102C84.5411 5.19158 86.5792 5.85231 88.6014 6.5906L88.9443 5.65125C86.8994 4.90464 84.8377 4.23626 82.7604 3.64803L82.4879 4.6102ZM94.5576 9.00896C96.4998 9.87791 98.4258 10.8191 100.335 11.8308L100.803 10.9473C98.875 9.92535 96.929 8.97439 94.9659 8.09615L94.5576 9.00896ZM105.919 15.0214C107.731 16.1322 109.526 17.3075 111.303 18.5456L111.874 17.7251C110.082 16.4761 108.271 15.2902 106.442 14.1689L105.919 15.0214ZM0.630575 23.2282C0.204326 23.5794 0.143472 24.2096 0.494656 24.6359C0.845839 25.0621 1.47607 25.123 1.90232 24.7718L0.630575 23.2282ZM119.31 24L115.124 13.2383L107.897 22.2441L119.31 24ZM1.90232 24.7718C2.73195 24.0883 3.56602 23.4189 4.4044 22.7639L3.17309 21.1879C2.32091 21.8537 1.47337 22.5338 0.630575 23.2282L1.90232 24.7718ZM9.55954 18.9558C11.3285 17.7231 13.1151 16.5532 14.9183 15.4476L13.8729 13.7426C12.0356 14.8691 10.2164 16.0605 8.41612 17.3149L9.55954 18.9558ZM20.4759 12.2726C22.3751 11.266 24.2911 10.3297 26.223 9.46537L25.4062 7.63975C23.4328 8.52263 21.4769 9.47849 19.5393 10.5055L20.4759 12.2726ZM32.1465 7.06028C34.1572 6.32615 36.1836 5.66924 38.2247 5.09129L37.6798 3.16695C35.5903 3.7586 33.5169 4.4308 31.4606 5.18158L32.1465 7.06028ZM44.431 3.58796C46.5183 3.16717 48.6196 2.82846 50.7338 2.57369L50.4946 0.588057C48.3275 0.849192 46.1742 1.1963 44.0358 1.62741L44.431 3.58796ZM57.0961 2.06377C58.1571 2.02133 59.2212 2 60.2882 2V0C59.1946 0 58.1038 0.0218678 57.0161 0.0653683L57.0961 2.06377ZM60.2882 2C61.3552 2 62.4192 2.02133 63.4803 2.06377L63.5602 0.0653684C62.4726 0.0218678 61.3818 0 60.2882 0V2ZM69.8425 2.57369C71.9568 2.82846 74.0581 3.16717 76.1454 3.58796L76.5406 1.62741C74.4022 1.1963 72.2489 0.849192 70.0818 0.588058L69.8425 2.57369ZM82.3517 5.09129C84.3927 5.66923 86.4192 6.32615 88.4299 7.06028L89.1158 5.18158C87.0595 4.4308 84.986 3.7586 82.8966 3.16695L82.3517 5.09129ZM94.3534 9.46537C96.2852 10.3297 98.2013 11.266 100.1 12.2726L101.037 10.5055C99.0995 9.47849 97.1435 8.52263 95.1701 7.63975L94.3534 9.46537ZM105.658 15.4476C107.461 16.5532 109.248 17.7231 111.017 18.9558L112.16 17.3149C110.36 16.0605 108.541 14.8691 106.703 13.7426L105.658 15.4476Z" fill="#B7DCFF"/>
</svg>
